<svg width="60" height="24" viewBox="0 0 60 24" fill="none" xmlns="http://www.w3.org/2000/svg">
<path d="M26.1599 10.8629H24.3567V16.9352H22.2734V10.8629H21.1259V9.85888L22.2734 9.29879V8.73869C22.2734 7.86895 22.4874 7.23373 22.9155 6.83301C23.3435 6.43229 24.0288 6.23193 24.9714 6.23193C25.6909 6.23193 26.3307 6.33894 26.8908 6.55296L26.358 8.08297C25.9391 7.95092 25.552 7.88489 25.1968 7.88489C24.9008 7.88489 24.6868 7.97369 24.5548 8.15128C24.4227 8.32431 24.3567 8.54744 24.3567 8.82066V9.29879H26.1599V10.8629Z" fill="#2F2E41"/>
<path d="M32.1889 16.9352L31.9088 15.9584H31.7996C31.5764 16.3136 31.26 16.5891 30.8501 16.7849C30.4403 16.9762 29.9736 17.0718 29.4499 17.0718C28.5528 17.0718 27.8766 16.8327 27.4213 16.3546C26.9659 15.8719 26.7382 15.1798 26.7382 14.2782V9.29879H28.8215V13.759C28.8215 14.31 28.9194 14.7244 29.1152 15.0022C29.311 15.2754 29.6229 15.412 30.051 15.412C30.6338 15.412 31.055 15.2185 31.3146 14.8314C31.5742 14.4398 31.7039 13.7932 31.7039 12.8916V9.29879H33.7872V16.9352H32.1889Z" fill="#2F2E41"/>
<path d="M40.7178 14.6675C40.7178 15.4507 40.4446 16.0472 39.8981 16.4571C39.3563 16.8669 38.5434 17.0718 37.4597 17.0718C36.9041 17.0718 36.4306 17.0331 36.039 16.9557C35.6474 16.8828 35.2808 16.7735 34.9393 16.6278V14.9065C35.3263 15.0887 35.7612 15.2412 36.2439 15.3642C36.7311 15.4871 37.1591 15.5486 37.528 15.5486C38.2839 15.5486 38.6618 15.33 38.6618 14.8929C38.6618 14.729 38.6117 14.5969 38.5116 14.4967C38.4114 14.392 38.2384 14.2759 37.9925 14.1484C37.7466 14.0163 37.4187 13.8638 37.0089 13.6907C36.4215 13.4448 35.9889 13.2172 35.7111 13.0077C35.4379 12.7982 35.2375 12.5592 35.11 12.2905C34.9871 12.0173 34.9256 11.6826 34.9256 11.2864C34.9256 10.6079 35.1874 10.0843 35.7111 9.71544C36.2393 9.34205 36.9861 9.15535 37.9515 9.15535C38.8713 9.15535 39.7661 9.35571 40.6358 9.75642L40.0074 11.2591C39.6249 11.0952 39.2675 10.9609 38.9351 10.8561C38.6026 10.7514 38.2634 10.699 37.9173 10.699C37.3026 10.699 36.9952 10.8652 36.9952 11.1976C36.9952 11.3843 37.0931 11.546 37.2889 11.6826C37.4893 11.8192 37.9242 12.0218 38.5935 12.2905C39.1901 12.5318 39.6272 12.7572 39.905 12.9667C40.1827 13.1762 40.3877 13.4175 40.5197 13.6907C40.6518 13.964 40.7178 14.2895 40.7178 14.6675Z" fill="#2F2E41"/>
<path d="M44.923 10.6375C44.4813 10.6375 44.1353 10.7787 43.8848 11.061C43.6344 11.3388 43.4909 11.735 43.4545 12.2495H46.3779C46.3688 11.735 46.2345 11.3388 45.9749 11.061C45.7154 10.7787 45.3647 10.6375 44.923 10.6375ZM45.2168 17.0718C43.9873 17.0718 43.0265 16.7325 42.3343 16.0541C41.6422 15.3756 41.2961 14.4148 41.2961 13.1716C41.2961 11.8921 41.6149 10.9039 42.2524 10.2072C42.8944 9.50598 43.7801 9.15535 44.9094 9.15535C45.9886 9.15535 46.8287 9.46272 47.4298 10.0775C48.0309 10.6922 48.3314 11.5414 48.3314 12.6252V13.6361H43.4067C43.4295 14.2281 43.6048 14.6903 43.9326 15.0227C44.2605 15.3551 44.7204 15.5213 45.3124 15.5213C45.7723 15.5213 46.2072 15.4735 46.617 15.3778C47.0268 15.2822 47.4548 15.1297 47.9011 14.9202V16.5322C47.5368 16.7143 47.1475 16.8487 46.7331 16.9352C46.3187 17.0263 45.8133 17.0718 45.2168 17.0718Z" fill="#2F2E41"/>
<path d="M51.5258 16.9352H49.4425V6.30707H51.5258V16.9352Z" fill="#2F2E41"/>
<path d="M52.0426 9.29879H54.324L55.7652 13.5951C55.8881 13.9685 55.9724 14.4102 56.0179 14.9202H56.0589C56.109 14.4512 56.2069 14.0095 56.3526 13.5951L57.7665 9.29879H60L56.7692 17.9119C56.4733 18.7088 56.0498 19.3053 55.4988 19.7015C54.9524 20.0977 54.3126 20.2957 53.5794 20.2957C53.2197 20.2957 52.8668 20.257 52.5207 20.1796V18.5267C52.7712 18.5859 53.0444 18.6155 53.3404 18.6155C53.7092 18.6155 54.0303 18.5016 54.3035 18.2739C54.5812 18.0508 54.7975 17.7116 54.9524 17.2562L55.0753 16.8805L52.0426 9.29879Z" fill="#2F2E41"/>
<path d="M8.38624 1.5692C7.48034 1.56943 6.61162 1.88595 5.97104 2.44917C5.33048 3.01239 4.9705 3.77622 4.97023 4.57274V5.93719H3.4184C2.96948 5.93686 2.52488 6.01437 2.11006 6.16528C1.69524 6.31618 1.31833 6.53754 1.00091 6.81666C0.683476 7.09576 0.431756 7.42718 0.260147 7.79191C0.0885383 8.15666 0.000408968 8.54758 0.000801443 8.9423V11.9448H4.96943V14.6737H3.4176C2.51144 14.6736 1.64234 14.99 1.00144 15.5532C0.360538 16.1165 0.000316538 16.8804 0 17.6772V22.8663H3.4192C3.8677 22.8661 4.31175 22.7883 4.72603 22.6371C5.14029 22.486 5.51663 22.2646 5.8336 21.9857C6.15055 21.7067 6.40189 21.3755 6.57328 21.011C6.74465 20.6465 6.83271 20.2561 6.83242 19.8618H6.83679V17.8794L6.82765 17.8804V5.25059L6.83521 5.25216V4.57326C6.83599 4.21126 6.99961 3.86422 7.29035 3.6079C7.58107 3.35158 7.97532 3.2068 8.38704 3.20513H14.3216V4.57326C14.3203 4.9351 14.1561 5.28177 13.865 5.53746C13.5738 5.79315 13.1793 5.93707 12.7678 5.93771H7.53752V7.5754H12.767C13.6729 7.57545 14.5417 7.25909 15.1823 6.69592C15.8229 6.13274 16.1829 5.3689 16.183 4.57239V1.56885L8.38624 1.5692ZM4.97023 10.3069H1.86538V8.94246C1.86606 8.58004 2.02987 8.23259 2.32103 7.97603C2.61218 7.71948 3.007 7.57468 3.4192 7.5733H4.97103L4.97023 10.3069ZM4.97023 19.8633C4.96955 20.2251 4.80588 20.572 4.51505 20.8279C4.22422 21.0839 3.8299 21.2282 3.4184 21.2291H1.86458V17.6781C1.86495 17.316 2.02885 16.9689 2.32021 16.713C2.6116 16.4572 3.00659 16.3135 3.4184 16.3136H4.97023V19.8633ZM7.53752 11.9446H11.4569V13.3105C11.4554 13.6722 11.2911 14.0188 11 14.2744C10.7088 14.5301 10.3145 14.674 9.90305 14.6749H7.53752V16.3136H9.90385C10.3525 16.3139 10.7968 16.2363 11.2114 16.0854C11.6259 15.9346 12.0026 15.7133 12.3198 15.4344C12.6371 15.1554 12.8887 14.8242 13.0603 14.4598C13.2319 14.0953 13.3201 13.7046 13.3199 13.3101H13.3214V10.3066H7.53752V11.9446Z" fill="#6C63FF"/>
</svg>
