<svg width="97" height="37" viewBox="0 0 97 37" fill="none" xmlns="http://www.w3.org/2000/svg">
<path d="M7.82422 35.9656H0.37793V0.272217H20.8369V6.47339H7.82422V15.6775H19.9336V21.8542H7.82422V35.9656ZM40.4678 8.15796C41.4769 8.15796 42.3151 8.2312 42.9824 8.37769L42.4209 15.3601C41.8187 15.1973 41.0863 15.116 40.2236 15.116C37.8473 15.116 35.9919 15.7263 34.6572 16.947C33.3389 18.1677 32.6797 19.8767 32.6797 22.074V35.9656H25.2334V8.67065H30.873L31.9717 13.2605H32.3379C33.1842 11.7306 34.3236 10.5017 35.7559 9.57397C37.2044 8.62996 38.7751 8.15796 40.4678 8.15796ZM57.2422 13.4558C55.6634 13.4558 54.4264 13.9604 53.5312 14.9695C52.6361 15.9623 52.1234 17.3783 51.9932 19.2175H62.4424C62.4098 17.3783 61.9297 15.9623 61.002 14.9695C60.0742 13.9604 58.821 13.4558 57.2422 13.4558ZM58.292 36.4539C53.8975 36.4539 50.4632 35.2413 47.9893 32.8162C45.5153 30.391 44.2783 26.9568 44.2783 22.5134C44.2783 17.9399 45.4176 14.408 47.6963 11.9177C49.9912 9.41121 53.1569 8.15796 57.1934 8.15796C61.0508 8.15796 64.0537 9.25659 66.2021 11.4539C68.3506 13.6511 69.4248 16.6866 69.4248 20.5603V24.1736H51.8223C51.9036 26.2895 52.5303 27.9415 53.7021 29.1296C54.874 30.3178 56.5179 30.9119 58.6338 30.9119C60.2777 30.9119 61.832 30.741 63.2969 30.3992C64.7617 30.0574 66.2917 29.5121 67.8867 28.7634V34.5251C66.5846 35.1762 65.193 35.6563 63.7119 35.9656C62.2308 36.2911 60.4242 36.4539 58.292 36.4539ZM84.7832 13.4558C83.2044 13.4558 81.9674 13.9604 81.0723 14.9695C80.1771 15.9623 79.6644 17.3783 79.5342 19.2175H89.9834C89.9508 17.3783 89.4707 15.9623 88.543 14.9695C87.6152 13.9604 86.362 13.4558 84.7832 13.4558ZM85.833 36.4539C81.4385 36.4539 78.0042 35.2413 75.5303 32.8162C73.0563 30.391 71.8193 26.9568 71.8193 22.5134C71.8193 17.9399 72.9587 14.408 75.2373 11.9177C77.5322 9.41121 80.6979 8.15796 84.7344 8.15796C88.5918 8.15796 91.5947 9.25659 93.7432 11.4539C95.8916 13.6511 96.9658 16.6866 96.9658 20.5603V24.1736H79.3633C79.4447 26.2895 80.0713 27.9415 81.2432 29.1296C82.415 30.3178 84.0589 30.9119 86.1748 30.9119C87.8187 30.9119 89.373 30.741 90.8379 30.3992C92.3027 30.0574 93.8327 29.5121 95.4277 28.7634V34.5251C94.1257 35.1762 92.734 35.6563 91.2529 35.9656C89.7718 36.2911 87.9652 36.4539 85.833 36.4539Z" fill="#2F2E41"/>
</svg>
