<svg width="146" height="41" viewBox="0 0 146 41" fill="none" xmlns="http://www.w3.org/2000/svg">
<path d="M24.9541 26.8083C24.9541 29.3962 24.0182 31.4796 22.1465 33.0583C20.2747 34.6208 17.6543 35.5567 14.2852 35.866V40.8708H10.9404V35.9636C6.96908 35.8822 3.486 35.1824 0.491211 33.864V27.4187C1.90723 28.1186 3.60807 28.7371 5.59375 29.2742C7.5957 29.8113 9.37793 30.1287 10.9404 30.2263V22.658L9.30469 22.0232C6.08203 20.7537 3.79525 19.3783 2.44434 17.8972C1.1097 16.3998 0.442383 14.5525 0.442383 12.3552C0.442383 9.9952 1.36198 8.05835 3.20117 6.54468C5.05664 5.01473 7.63639 4.087 10.9404 3.76147V0.026123H14.2852V3.66382C18.0124 3.82658 21.3815 4.57528 24.3926 5.90991L22.0977 11.6228C19.5586 10.5811 16.9544 9.94637 14.2852 9.71851V16.9207C17.459 18.1414 19.7132 19.1993 21.0479 20.0945C22.3988 20.9897 23.3835 21.9744 24.002 23.0486C24.6367 24.1228 24.9541 25.3761 24.9541 26.8083ZM17.6055 27.1746C17.6055 26.491 17.3288 25.9132 16.7754 25.4412C16.222 24.9692 15.3919 24.4809 14.2852 23.9763V30.0554C16.4987 29.6811 17.6055 28.7208 17.6055 27.1746ZM7.79102 12.3552C7.79102 13.0714 8.03516 13.6654 8.52344 14.1375C9.02799 14.5932 9.83366 15.0652 10.9404 15.5535V9.81616C8.84082 10.1254 7.79102 10.9718 7.79102 12.3552ZM54.6172 30.5681H50.3203V37.9656H42.9473V30.5681H27.7129V25.3191L43.3623 2.27222H50.3203V24.7087H54.6172V30.5681ZM42.9473 24.7087V18.6541C42.9473 17.6449 42.988 16.1801 43.0693 14.2595C43.1507 12.3389 43.2158 11.224 43.2646 10.9148H43.0693C42.4671 12.2494 41.7428 13.5515 40.8965 14.821L34.3535 24.7087H42.9473ZM82.2295 17.5066C82.2295 24.5378 80.7484 29.7869 77.7861 33.2537C74.8239 36.7205 70.3398 38.4539 64.334 38.4539C62.2181 38.4539 60.6149 38.3399 59.5244 38.1121V32.0574C60.8916 32.3992 62.3239 32.5701 63.8213 32.5701C66.3441 32.5701 68.4193 32.2039 70.0469 31.4714C71.6745 30.7227 72.9196 29.559 73.7822 27.9802C74.6449 26.3852 75.1413 24.196 75.2715 21.4128H74.9785C74.0345 22.9428 72.944 24.017 71.707 24.6355C70.4701 25.254 68.9238 25.5632 67.0684 25.5632C63.9596 25.5632 61.5101 24.5704 59.7197 22.5847C57.9294 20.5828 57.0342 17.8077 57.0342 14.2595C57.0342 10.4347 58.1165 7.41545 60.2812 5.2019C62.4622 2.97209 65.4245 1.85718 69.168 1.85718C71.8047 1.85718 74.1077 2.47567 76.0771 3.71265C78.0628 4.94963 79.5846 6.74813 80.6426 9.10815C81.7005 11.4519 82.2295 14.2514 82.2295 17.5066ZM69.3145 7.91187C67.752 7.91187 66.5312 8.44897 65.6523 9.52319C64.7734 10.5974 64.334 12.1436 64.334 14.1619C64.334 15.8871 64.7327 17.2543 65.5303 18.2634C66.3278 19.2725 67.5404 19.7771 69.168 19.7771C70.6979 19.7771 72.0081 19.2807 73.0986 18.2878C74.1891 17.2787 74.7344 16.1231 74.7344 14.821C74.7344 12.8842 74.2217 11.2485 73.1963 9.91382C72.1872 8.57918 70.8932 7.91187 69.3145 7.91187ZM90.4121 25.116L85.6221 37.9656H84.1631L88.9531 25.116H90.4121ZM104.422 37.9656V31.699C104.422 30.9314 104.258 30.3572 103.93 29.9763C103.602 29.5896 103.092 29.3962 102.4 29.3962C101.492 29.3962 100.821 29.657 100.388 30.1785C99.9541 30.7 99.7373 31.5027 99.7373 32.5867V37.9656H98.2783V31.699C98.2783 30.9314 98.1143 30.3572 97.7861 29.9763C97.458 29.5896 96.9453 29.3962 96.248 29.3962C95.334 29.3962 94.6631 29.6716 94.2354 30.2224C93.8135 30.7673 93.6025 31.6638 93.6025 32.9119V37.9656H92.1436V28.3328H93.3301L93.5674 29.6511H93.6377C93.9131 29.1824 94.2998 28.8162 94.7979 28.5525C95.3018 28.2888 95.8643 28.157 96.4854 28.157C97.9912 28.157 98.9756 28.7019 99.4385 29.7917H99.5088C99.7959 29.2878 100.212 28.8894 100.757 28.5964C101.302 28.3035 101.923 28.157 102.62 28.157C103.71 28.157 104.524 28.4382 105.063 29.0007C105.608 29.5574 105.881 30.4509 105.881 31.6814V37.9656H104.422ZM117.21 33.1404C117.21 34.7107 116.814 35.9382 116.023 36.823C115.232 37.7019 114.14 38.1414 112.745 38.1414C111.884 38.1414 111.119 37.9392 110.451 37.5349C109.783 37.1306 109.268 36.5505 108.904 35.7947C108.541 35.0388 108.359 34.1541 108.359 33.1404C108.359 31.5701 108.752 30.3484 109.537 29.4753C110.322 28.5964 111.412 28.157 112.807 28.157C114.154 28.157 115.224 28.6052 116.015 29.5017C116.812 30.3982 117.21 31.6111 117.21 33.1404ZM109.871 33.1404C109.871 34.3708 110.117 35.3083 110.609 35.9529C111.102 36.5974 111.825 36.9197 112.78 36.9197C113.735 36.9197 114.459 36.6003 114.951 35.9617C115.449 35.3171 115.698 34.3767 115.698 33.1404C115.698 31.9158 115.449 30.9871 114.951 30.3542C114.459 29.7156 113.729 29.3962 112.763 29.3962C111.808 29.3962 111.087 29.7097 110.601 30.3367C110.114 30.9636 109.871 31.8982 109.871 33.1404ZM126.368 37.9656V31.7341C126.368 30.949 126.189 30.363 125.832 29.9763C125.475 29.5896 124.915 29.3962 124.153 29.3962C123.146 29.3962 122.407 29.6687 121.938 30.2136C121.47 30.7585 121.235 31.658 121.235 32.9119V37.9656H119.776V28.3328H120.963L121.2 29.6511H121.271C121.569 29.1765 121.988 28.8103 122.527 28.5525C123.066 28.2888 123.667 28.157 124.329 28.157C125.489 28.157 126.362 28.4382 126.948 29.0007C127.534 29.5574 127.827 30.4509 127.827 31.6814V37.9656H126.368ZM133.944 36.9373C134.202 36.9373 134.451 36.9197 134.691 36.8845C134.932 36.8435 135.122 36.8025 135.263 36.7615V37.8777C135.104 37.9539 134.87 38.0154 134.56 38.0623C134.255 38.115 133.979 38.1414 133.733 38.1414C131.87 38.1414 130.938 37.1599 130.938 35.197V29.4666H129.559V28.7634L130.938 28.157L131.554 26.1003H132.397V28.3328H135.192V29.4666H132.397V35.1355C132.397 35.7156 132.535 36.1609 132.811 36.4714C133.086 36.782 133.464 36.9373 133.944 36.9373ZM143.788 37.9656V31.7341C143.788 30.949 143.609 30.363 143.252 29.9763C142.895 29.5896 142.335 29.3962 141.573 29.3962C140.56 29.3962 139.818 29.6716 139.35 30.2224C138.887 30.7732 138.655 31.6755 138.655 32.9294V37.9656H137.196V24.2898H138.655V28.4294C138.655 28.9275 138.632 29.3406 138.585 29.6687H138.673C138.96 29.2058 139.367 28.8425 139.895 28.5789C140.428 28.3093 141.034 28.1746 141.714 28.1746C142.892 28.1746 143.773 28.4558 144.359 29.0183C144.951 29.575 145.247 30.4626 145.247 31.6814V37.9656H143.788Z" fill="#2F2E41"/>
</svg>
