<svg width="146" height="42" viewBox="0 0 146 42" fill="none" xmlns="http://www.w3.org/2000/svg">
<path d="M24.9541 27.3083C24.9541 29.8962 24.0182 31.9796 22.1465 33.5583C20.2747 35.1208 17.6543 36.0567 14.2852 36.366V41.3708H10.9404V36.4636C6.96908 36.3822 3.486 35.6824 0.491211 34.364V27.9187C1.90723 28.6186 3.60807 29.2371 5.59375 29.7742C7.5957 30.3113 9.37793 30.6287 10.9404 30.7263V23.158L9.30469 22.5232C6.08203 21.2537 3.79525 19.8783 2.44434 18.3972C1.1097 16.8998 0.442383 15.0525 0.442383 12.8552C0.442383 10.4952 1.36198 8.55835 3.20117 7.04468C5.05664 5.51473 7.63639 4.587 10.9404 4.26147V0.526123H14.2852V4.16382C18.0124 4.32658 21.3815 5.07528 24.3926 6.40991L22.0977 12.1228C19.5586 11.0811 16.9544 10.4464 14.2852 10.2185V17.4207C17.459 18.6414 19.7132 19.6993 21.0479 20.5945C22.3988 21.4897 23.3835 22.4744 24.002 23.5486C24.6367 24.6228 24.9541 25.8761 24.9541 27.3083ZM17.6055 27.6746C17.6055 26.991 17.3288 26.4132 16.7754 25.9412C16.222 25.4692 15.3919 24.9809 14.2852 24.4763V30.5554C16.4987 30.1811 17.6055 29.2208 17.6055 27.6746ZM7.79102 12.8552C7.79102 13.5714 8.03516 14.1654 8.52344 14.6375C9.02799 15.0932 9.83366 15.5652 10.9404 16.0535V10.3162C8.84082 10.6254 7.79102 11.4718 7.79102 12.8552ZM53.8115 38.4656H28.8604V33.2166L37.8203 24.1589C40.4733 21.4408 42.2067 19.561 43.0205 18.5193C43.8343 17.4613 44.4202 16.4848 44.7783 15.5896C45.1364 14.6944 45.3154 13.7667 45.3154 12.8064C45.3154 11.3741 44.9167 10.308 44.1191 9.60815C43.3379 8.90828 42.2881 8.55835 40.9697 8.55835C39.5863 8.55835 38.2435 8.87573 36.9414 9.5105C35.6393 10.1453 34.2803 11.0486 32.8643 12.2205L28.7627 7.36206C30.5205 5.86466 31.9772 4.80672 33.1328 4.18823C34.2884 3.56974 35.5498 3.09774 36.917 2.77222C38.2842 2.43042 39.8141 2.25952 41.5068 2.25952C43.7367 2.25952 45.7061 2.66642 47.415 3.48022C49.124 4.29403 50.4505 5.43335 51.3945 6.89819C52.3385 8.36304 52.8105 10.0395 52.8105 11.9275C52.8105 13.5714 52.5176 15.1176 51.9316 16.5662C51.362 17.9985 50.4668 19.4714 49.2461 20.9851C48.0417 22.4988 45.9095 24.6554 42.8496 27.4548L38.2598 31.7761V32.1179H53.8115V38.4656ZM82.2295 18.0066C82.2295 25.0378 80.7484 30.2869 77.7861 33.7537C74.8239 37.2205 70.3398 38.9539 64.334 38.9539C62.2181 38.9539 60.6149 38.8399 59.5244 38.6121V32.5574C60.8916 32.8992 62.3239 33.0701 63.8213 33.0701C66.3441 33.0701 68.4193 32.7039 70.0469 31.9714C71.6745 31.2227 72.9196 30.059 73.7822 28.4802C74.6449 26.8852 75.1413 24.696 75.2715 21.9128H74.9785C74.0345 23.4428 72.944 24.517 71.707 25.1355C70.4701 25.754 68.9238 26.0632 67.0684 26.0632C63.9596 26.0632 61.5101 25.0704 59.7197 23.0847C57.9294 21.0828 57.0342 18.3077 57.0342 14.7595C57.0342 10.9347 58.1165 7.91545 60.2812 5.7019C62.4622 3.47209 65.4245 2.35718 69.168 2.35718C71.8047 2.35718 74.1077 2.97567 76.0771 4.21265C78.0628 5.44963 79.5846 7.24813 80.6426 9.60815C81.7005 11.9519 82.2295 14.7514 82.2295 18.0066ZM69.3145 8.41187C67.752 8.41187 66.5312 8.94897 65.6523 10.0232C64.7734 11.0974 64.334 12.6436 64.334 14.6619C64.334 16.3871 64.7327 17.7543 65.5303 18.7634C66.3278 19.7725 67.5404 20.2771 69.168 20.2771C70.6979 20.2771 72.0081 19.7807 73.0986 18.7878C74.1891 17.7787 74.7344 16.6231 74.7344 15.321C74.7344 13.3842 74.2217 11.7485 73.1963 10.4138C72.1872 9.07918 70.8932 8.41187 69.3145 8.41187ZM90.4121 25.616L85.6221 38.4656H84.1631L88.9531 25.616H90.4121ZM104.422 38.4656V32.199C104.422 31.4314 104.258 30.8572 103.93 30.4763C103.602 30.0896 103.092 29.8962 102.4 29.8962C101.492 29.8962 100.821 30.157 100.388 30.6785C99.9541 31.2 99.7373 32.0027 99.7373 33.0867V38.4656H98.2783V32.199C98.2783 31.4314 98.1143 30.8572 97.7861 30.4763C97.458 30.0896 96.9453 29.8962 96.248 29.8962C95.334 29.8962 94.6631 30.1716 94.2354 30.7224C93.8135 31.2673 93.6025 32.1638 93.6025 33.4119V38.4656H92.1436V28.8328H93.3301L93.5674 30.1511H93.6377C93.9131 29.6824 94.2998 29.3162 94.7979 29.0525C95.3018 28.7888 95.8643 28.657 96.4854 28.657C97.9912 28.657 98.9756 29.2019 99.4385 30.2917H99.5088C99.7959 29.7878 100.212 29.3894 100.757 29.0964C101.302 28.8035 101.923 28.657 102.62 28.657C103.71 28.657 104.524 28.9382 105.063 29.5007C105.608 30.0574 105.881 30.9509 105.881 32.1814V38.4656H104.422ZM117.21 33.6404C117.21 35.2107 116.814 36.4382 116.023 37.323C115.232 38.2019 114.14 38.6414 112.745 38.6414C111.884 38.6414 111.119 38.4392 110.451 38.0349C109.783 37.6306 109.268 37.0505 108.904 36.2947C108.541 35.5388 108.359 34.6541 108.359 33.6404C108.359 32.0701 108.752 30.8484 109.537 29.9753C110.322 29.0964 111.412 28.657 112.807 28.657C114.154 28.657 115.224 29.1052 116.015 30.0017C116.812 30.8982 117.21 32.1111 117.21 33.6404ZM109.871 33.6404C109.871 34.8708 110.117 35.8083 110.609 36.4529C111.102 37.0974 111.825 37.4197 112.78 37.4197C113.735 37.4197 114.459 37.1003 114.951 36.4617C115.449 35.8171 115.698 34.8767 115.698 33.6404C115.698 32.4158 115.449 31.4871 114.951 30.8542C114.459 30.2156 113.729 29.8962 112.763 29.8962C111.808 29.8962 111.087 30.2097 110.601 30.8367C110.114 31.4636 109.871 32.3982 109.871 33.6404ZM126.368 38.4656V32.2341C126.368 31.449 126.189 30.863 125.832 30.4763C125.475 30.0896 124.915 29.8962 124.153 29.8962C123.146 29.8962 122.407 30.1687 121.938 30.7136C121.47 31.2585 121.235 32.158 121.235 33.4119V38.4656H119.776V28.8328H120.963L121.2 30.1511H121.271C121.569 29.6765 121.988 29.3103 122.527 29.0525C123.066 28.7888 123.667 28.657 124.329 28.657C125.489 28.657 126.362 28.9382 126.948 29.5007C127.534 30.0574 127.827 30.9509 127.827 32.1814V38.4656H126.368ZM133.944 37.4373C134.202 37.4373 134.451 37.4197 134.691 37.3845C134.932 37.3435 135.122 37.3025 135.263 37.2615V38.3777C135.104 38.4539 134.87 38.5154 134.56 38.5623C134.255 38.615 133.979 38.6414 133.733 38.6414C131.87 38.6414 130.938 37.6599 130.938 35.697V29.9666H129.559V29.2634L130.938 28.657L131.554 26.6003H132.397V28.8328H135.192V29.9666H132.397V35.6355C132.397 36.2156 132.535 36.6609 132.811 36.9714C133.086 37.282 133.464 37.4373 133.944 37.4373ZM143.788 38.4656V32.2341C143.788 31.449 143.609 30.863 143.252 30.4763C142.895 30.0896 142.335 29.8962 141.573 29.8962C140.56 29.8962 139.818 30.1716 139.35 30.7224C138.887 31.2732 138.655 32.1755 138.655 33.4294V38.4656H137.196V24.7898H138.655V28.9294C138.655 29.4275 138.632 29.8406 138.585 30.1687H138.673C138.96 29.7058 139.367 29.3425 139.895 29.0789C140.428 28.8093 141.034 28.6746 141.714 28.6746C142.892 28.6746 143.773 28.9558 144.359 29.5183C144.951 30.075 145.247 30.9626 145.247 32.1814V38.4656H143.788Z" fill="white"/>
</svg>
